<?xml version="1.0" encoding="UTF-8"?>
<svg id="_Слой_1" data-name="Слой 1" xmlns="http://www.w3.org/2000/svg" width="20mm" height="20mm" xmlns:xlink="http://www.w3.org/1999/xlink" viewBox="0 0 56.69 56.69">
  <defs>
    <clipPath id="clippath">
      <rect width="56.69" height="56.69" fill="none"/>
    </clipPath>
  </defs>
  <g id="_Слой_1-2" data-name=" Слой 1-2">
    <g clip-path="url(#clippath)">
      <g>
        <path d="M42.5,56.69H14.19c-7.81,0-14.19-6.38-14.19-14.19V14.19C0,6.39,6.38,0,14.19,0h28.31c7.8,0,14.19,6.39,14.19,14.19v28.31c0,7.8-6.38,14.19-14.19,14.19" fill="#dae9f8"/>
        <path d="M21.32,22.44h0c3.4,0,6.48,1.41,8.71,3.66,2.23,2.26,3.6,5.4,3.6,8.84h0,0c0,3.47-1.38,6.59-3.6,8.85-2.23,2.26-5.31,3.66-8.71,3.66s-6.48-1.4-8.71-3.66c-2.22-2.26-3.6-5.39-3.6-8.85s1.38-6.57,3.6-8.84c2.23-2.25,5.31-3.66,8.71-3.66" fill="#2cbced"/>
        <path d="M36.32,22.44h0c3.4,0,6.48,1.41,8.71,3.66,2.22,2.26,3.6,5.4,3.6,8.84s-1.39,6.59-3.6,8.85c-2.23,2.26-5.31,3.66-8.71,3.66s-6.49-1.4-8.72-3.66c-2.23-2.26-3.6-5.39-3.6-8.85h0,0c0-3.44,1.38-6.57,3.6-8.84,2.23-2.25,5.31-3.66,8.72-3.66" fill="#2cbced"/>
        <path d="M28.82,9.25h0c3.4,0,6.49,1.41,8.71,3.66,2.23,2.26,3.6,5.39,3.6,8.84h0c0,3.46-1.37,6.58-3.6,8.84-2.23,2.26-5.3,3.65-8.71,3.65s-6.48-1.39-8.71-3.65c-2.22-2.27-3.6-5.39-3.6-8.84h0,0c0-3.46,1.38-6.58,3.6-8.84,2.23-2.26,5.31-3.66,8.71-3.66h0Z" fill="#2cbced"/>
        <path d="M21.32,23.6c6.17,0,11.18,5.07,11.18,11.34s-5.01,11.36-11.18,11.36-11.17-5.09-11.17-11.36,5-11.34,11.17-11.34" fill="#2cbced"/>
        <path d="M36.32,24.75h0c-2.17,0-4.16.69-5.8,1.87,1.94,2.21,3.12,5.13,3.12,8.31h0,0c0,3.2-1.18,6.1-3.12,8.33,1.64,1.18,3.64,1.88,5.8,1.88v-.02.02c2.76,0,5.27-1.15,7.09-2.99,1.81-1.86,2.94-4.4,2.94-7.22s-1.13-5.35-2.94-7.19c-1.81-1.84-4.33-2.99-7.09-2.99" fill="#fff"/>
        <path d="M28.82,11.56h0c-2.77,0-5.28,1.14-7.1,2.99-1.81,1.84-2.94,4.4-2.94,7.2h.01-.01c0,2.81,1.13,5.35,2.94,7.19.84.86,1.81,1.55,2.9,2.06.61-1.88,1.64-3.55,2.98-4.92,2.23-2.25,5.31-3.66,8.72-3.66.86,0,1.69.09,2.49.26.04-.32.05-.63.05-.95h-.02.02c0-2.81-1.13-5.36-2.95-7.2-1.82-1.85-4.33-2.99-7.1-2.99" fill="#fff"/>
        <path d="M17.13,25.69c-1.09.5-2.07,1.2-2.9,2.05-1.81,1.84-2.94,4.4-2.94,7.19h.01-.01c0,2.82,1.13,5.35,2.94,7.22,1.82,1.84,4.33,2.99,7.1,2.99v-.02.02c2.77,0,5.28-1.15,7.1-2.99,1.81-1.86,2.94-4.4,2.94-7.22h0,0c0-.31-.02-.62-.05-.94-.8.17-1.64.25-2.5.25-3.4,0-6.48-1.39-8.71-3.65-1.34-1.37-2.37-3.04-2.98-4.91" fill="#fff"/>
        <path d="M13.13,27.14c-3.08,0-4.92-2.43-4.92-6.5,0-5.07,2.83-6.88,5.26-6.88.93,0,1.54.19,1.79.37.05.04.08.1.07.16l-.41,2.09s-.04.09-.09.11c-.02.01-.05.02-.07.02-.02,0-.05,0-.07-.02-.23-.11-.53-.23-1.07-.23-1.55,0-2.48,1.58-2.48,4.23s.88,4.1,2.48,4.1c.41,0,.87-.1,1.13-.18.02,0,.03,0,.05,0,.03,0,.06.01.09.03.04.03.07.07.07.12l.24,2.09c0,.07-.03.14-.09.17-.42.2-1.16.32-1.98.32" fill="#636361"/>
        <path d="M13.47,13.61c-2.5,0-5.42,1.84-5.42,7.04,0,4.17,1.9,6.66,5.08,6.66.85,0,1.61-.13,2.05-.34.12-.06.2-.19.18-.33l-.24-2.09c-.01-.1-.07-.18-.14-.23-.05-.04-.11-.05-.17-.05-.03,0-.07,0-.1.02-.25.08-.69.17-1.09.17-1.06,0-2.32-.68-2.32-3.94,0-2.55.87-4.07,2.32-4.07.51,0,.78.11,1.01.22.04.02.09.03.13.03.05,0,.1-.01.14-.04.09-.05.15-.13.17-.23l.41-2.09c.03-.13-.03-.26-.13-.33-.35-.24-1.07-.4-1.89-.4M13.47,13.93c.86,0,1.46.17,1.71.34l-.41,2.09c-.28-.13-.6-.24-1.14-.24-1.39,0-2.64,1.22-2.64,4.39s1.14,4.26,2.64,4.26c.41,0,.88-.1,1.18-.19l.24,2.09c-.36.17-1.05.31-1.91.31-3.22,0-4.76-2.7-4.76-6.33,0-4.83,2.64-6.71,5.1-6.71" fill="#fff"/>
        <path d="M16.39,27.03c-.09,0-.16-.07-.16-.16v-12.82c0-.09.07-.16.16-.16h5.49c.09,0,.16.07.16.16v2.17c0,.09-.07.16-.16.16h-2.88v2.97h2.69c.09,0,.16.07.16.16v2.07c0,.09-.07.16-.16.16h-2.69v5.13c0,.09-.07.16-.16.16h-2.46Z" fill="#636361"/>
        <path d="M21.89,13.72h-5.49c-.18,0-.32.15-.32.33v12.82c0,.18.14.33.32.33h2.46c.18,0,.32-.15.32-.33v-4.97h2.53c.18,0,.32-.15.32-.33v-2.07c0-.18-.14-.33-.32-.33h-2.53v-2.64h2.72c.18,0,.32-.15.32-.33v-2.17c0-.18-.14-.33-.32-.33M21.89,14.05v2.17h-3.04v3.29h2.85v2.07h-2.85v5.29h-2.46v-12.82h5.49Z" fill="#fff"/>
        <path d="M28.13,27.14c-1.47,0-2.61-.43-3.48-1.32-1.11-1.08-1.72-3.01-1.68-5.29.04-3.12,1.51-6.76,5.52-6.76,1.18,0,1.89.28,2.13.4.07.03.1.11.09.18l-.43,2.15c-.01.05-.04.09-.09.11-.02.01-.05.02-.07.02-.03,0-.05,0-.07-.02-.34-.18-.78-.26-1.37-.26-1.85,0-2.84,1.5-2.84,4.35s1.12,4.02,2.17,4.02c.16,0,.26-.01.33-.02v-2.81h-.96c-.09,0-.16-.07-.16-.16v-2.04c0-.09.07-.16.16-.16h3.39c.09,0,.16.07.16.16v6.85c0,.07-.04.13-.1.15-.53.22-1.72.47-2.68.47" fill="#636361"/>
        <path d="M28.48,13.61c-2.58,0-5.62,1.81-5.68,6.92-.04,2.32.59,4.29,1.73,5.41.91.92,2.08,1.37,3.6,1.37.99,0,2.2-.25,2.75-.48.12-.05.2-.17.2-.3v-6.85c0-.18-.14-.33-.32-.33h-3.39c-.18,0-.32.15-.32.33v2.04c0,.18.14.33.32.33h.8v2.5h-.17c-1.48,0-2-1.99-2-3.86s.46-4.18,2.68-4.18c.56,0,.98.08,1.29.24.05.03.1.04.15.04.05,0,.09-.01.14-.03.09-.05.16-.13.18-.23l.43-2.15c.03-.15-.04-.3-.17-.36-.25-.12-.98-.41-2.2-.41M28.48,13.93c.96,0,1.67.19,2.06.38l-.43,2.15c-.36-.19-.83-.29-1.44-.29-1.67,0-3,1.16-3,4.51,0,3.08,1.18,4.18,2.32,4.18.22,0,.39-.02.49-.06v-3.1h-1.13v-2.04h3.39v6.85c-.55.23-1.71.46-2.62.46-1.44,0-2.53-.42-3.37-1.27-1.09-1.06-1.67-2.97-1.63-5.18.06-4.66,2.68-6.6,5.36-6.6" fill="#fff"/>
      </g>
    </g>
  </g>
</svg>