<?xml version="1.0" encoding="UTF-8"?>
<svg id="_Слой_1" data-name=" Слой 1" xmlns="http://www.w3.org/2000/svg" width="56.69" height="56.69" viewBox="0 0 56.69 56.69">
  <g id="_Слой_1-2" data-name=" Слой 1-2">
    <g>
      <path d="M42.5,56.69H14.19c-7.8,0-14.19-6.39-14.19-14.19V14.19C0,6.39,6.39,0,14.19,0h28.31c7.8,0,14.19,6.39,14.19,14.19v28.31c0,7.8-6.39,14.19-14.19,14.19Z" fill="#dae9f8"/>
      <g>
        <path d="M28.36,7.54c-.11,0-.19-.09-.19-.19V2.54c0-.11.09-.19.19-.19s.19.09.19.19v4.8c0,.11-.09.19-.19.19Z" fill="#66c0ed"/>
        <path d="M28.72,2.56c0-.2-.16-.36-.36-.36s-.36.16-.36.36.16.36.36.36.36-.16.36-.36Z" fill="#66c0ed"/>
      </g>
      <g>
        <path d="M36.99,7.54c-.11,0-.2-.09-.2-.19V2.54c0-.11.09-.19.2-.19s.2.09.2.19v4.8c0,.11-.09.19-.2.19Z" fill="#66c0ed"/>
        <path d="M37.35,2.56c0-.2-.16-.36-.36-.36s-.36.16-.36.36.16.36.36.36.36-.16.36-.36Z" fill="#66c0ed"/>
      </g>
      <g>
        <path d="M19.34,7.54c-.11,0-.19-.09-.19-.19V2.54c0-.11.09-.19.19-.19s.19.09.19.19v4.8c0,.11-.09.19-.19.19Z" fill="#66c0ed"/>
        <path d="M19.7,2.56c0-.2-.16-.36-.36-.36s-.36.16-.36.36.16.36.36.36.36-.16.36-.36Z" fill="#66c0ed"/>
      </g>
      <g>
        <path d="M54.1,28.41h-4.8c-.11,0-.2-.09-.2-.19s.09-.19.2-.19h4.8c.11,0,.2.09.2.19s-.09.19-.2.19Z" fill="#66c0ed"/>
        <path d="M54.08,28.57c.2,0,.36-.16.36-.36s-.16-.36-.36-.36-.36.16-.36.36.16.36.36.36Z" fill="#66c0ed"/>
      </g>
      <g>
        <path d="M54.1,35.82h-4.8c-.11,0-.2-.09-.2-.2s.09-.2.2-.2h4.8c.11,0,.2.09.2.2s-.09.2-.2.2Z" fill="#66c0ed"/>
        <path d="M54.08,35.97c.2,0,.36-.16.36-.36s-.16-.36-.36-.36-.36.16-.36.36.16.36.36.36Z" fill="#66c0ed"/>
      </g>
      <g>
        <path d="M54.1,21.19h-4.8c-.11,0-.2-.09-.2-.19s.09-.19.2-.19h4.8c.11,0,.2.09.2.19s-.09.19-.2.19Z" fill="#66c0ed"/>
        <path d="M54.08,21.35c.2,0,.36-.16.36-.36s-.16-.36-.36-.36-.36.16-.36.36.16.36.36.36Z" fill="#66c0ed"/>
      </g>
      <g>
        <path d="M36.99,54.23c-.11,0-.2-.09-.2-.2v-4.8c0-.11.09-.2.2-.2s.2.09.2.2v4.8c0,.11-.09.2-.2.2Z" fill="#66c0ed"/>
        <path d="M37.35,54.01c0,.2-.16.36-.36.36s-.36-.16-.36-.36.16-.36.36-.36.36.16.36.36Z" fill="#66c0ed"/>
      </g>
      <g>
        <path d="M28.36,54.23c-.11,0-.19-.09-.19-.2v-4.8c0-.11.09-.2.19-.2s.19.09.19.2v4.8c0,.11-.09.2-.19.2Z" fill="#66c0ed"/>
        <path d="M28.72,54.01c0,.2-.16.36-.36.36s-.36-.16-.36-.36.16-.36.36-.36.36.16.36.36Z" fill="#66c0ed"/>
      </g>
      <g>
        <path d="M19.34,54.23c-.11,0-.19-.09-.19-.2v-4.8c0-.11.09-.2.19-.2s.19.09.19.2v4.8c0,.11-.09.2-.19.2Z" fill="#66c0ed"/>
        <path d="M19.7,54.01c0,.2-.16.36-.36.36s-.36-.16-.36-.36.16-.36.36-.36.36.16.36.36Z" fill="#66c0ed"/>
      </g>
      <g>
        <path d="M7.41,28.58H2.61c-.11,0-.19-.09-.19-.19s.09-.19.19-.19h4.8c.11,0,.19.09.19.19s-.09.19-.19.19Z" fill="#66c0ed"/>
        <path d="M2.63,28.74c-.2,0-.36-.16-.36-.36s.16-.36.36-.36.36.16.36.36-.16.36-.36.36Z" fill="#66c0ed"/>
      </g>
      <g>
        <path d="M7.41,21.19H2.61c-.11,0-.19-.09-.19-.19s.09-.19.19-.19h4.8c.11,0,.19.09.19.19s-.09.19-.19.19Z" fill="#66c0ed"/>
        <path d="M2.63,21.35c-.2,0-.36-.16-.36-.36s.16-.36.36-.36.36.16.36.36-.16.36-.36.36Z" fill="#66c0ed"/>
      </g>
      <g>
        <path d="M7.41,35.82H2.61c-.11,0-.19-.09-.19-.2s.09-.2.19-.2h4.8c.11,0,.19.09.19.2s-.09.2-.19.2Z" fill="#66c0ed"/>
        <path d="M2.63,35.97c-.2,0-.36-.16-.36-.36s.16-.36.36-.36.36.16.36.36-.16.36-.36.36Z" fill="#66c0ed"/>
      </g>
      <g>
        <g>
          <path d="M49.3,13.72v29.13c0,3.52-2.86,6.38-6.38,6.38H13.78c-3.52,0-6.38-2.86-6.38-6.38V13.72c0-3.52,2.86-6.38,6.38-6.38h29.13c3.52,0,6.38,2.86,6.38,6.38h0Z" fill="#66c0ed"/>
          <g>
            <path d="M44.98,28.39v15.24c0,.72-.59,1.31-1.31,1.31H12.99c-.72,0-1.31-.59-1.31-1.31v-15.24c0-.09.07-.16.16-.16h32.98c.09,0,.16.07.16.16Z" fill="#29b5e7"/>
            <path d="M44.98,12.94v15.28H11.68v-15.28c0-.72.59-1.31,1.31-1.31h30.69c.73,0,1.31.59,1.31,1.31h-.01Z" fill="#fff"/>
          </g>
        </g>
        <g>
          <path d="M16.57,27.55c-.19.09-.65.21-1.23.21-1.67,0-2.53-1.04-2.53-2.42,0-1.65,1.17-2.56,2.63-2.56.56,0,1,.11,1.19.21l-.23.86c-.21-.09-.52-.18-.92-.18-.86,0-1.53.52-1.53,1.6,0,.97.57,1.58,1.54,1.58.34,0,.7-.06.92-.16,0,0,.16.86.16.86Z" fill="#29b5e7"/>
          <path d="M21.53,25.21c0,1.59-.95,2.54-2.37,2.54s-2.27-1.08-2.27-2.46.93-2.53,2.35-2.53,2.29,1.11,2.29,2.44h0ZM18.04,25.27c0,.95.44,1.62,1.18,1.62s1.16-.7,1.16-1.64c0-.87-.41-1.62-1.16-1.62s-1.18.7-1.18,1.64Z" fill="#29b5e7"/>
          <path d="M26.36,25.83c-.02-.58-.04-1.28-.04-1.98h-.02c-.16.61-.36,1.3-.54,1.87l-.59,1.88h-.85l-.52-1.86c-.16-.57-.32-1.26-.43-1.89h-.02c-.02.65-.05,1.4-.08,1.99l-.09,1.83h-1.01l.31-4.82h1.45l.47,1.61c.16.56.3,1.16.41,1.72h.03c.13-.56.29-1.2.46-1.73l.51-1.6h1.43l.26,4.82h-1.06l-.08-1.85h0Z" fill="#29b5e7"/>
          <path d="M28.38,22.92c.34-.06.81-.1,1.47-.1s1.15.13,1.47.38c.32.24.52.64.52,1.11s-.15.88-.44,1.15c-.37.34-.92.51-1.57.51-.14,0-.27,0-.37-.03v1.73h-1.08v-4.76h0ZM29.46,25.11c.09.02.2.03.36.03.58,0,.94-.29.94-.78,0-.44-.31-.71-.86-.71-.21,0-.36.02-.44.04v1.42h0Z" fill="#29b5e7"/>
          <path d="M32.59,22.86h1.09v3.91h1.92v.92h-3.01v-4.82h0Z" fill="#29b5e7"/>
          <path d="M39.15,25.64h-1.77v1.15h1.98v.9h-3.07v-4.82h2.97v.9h-1.88v1h1.77v.89h0v-.02Z" fill="#29b5e7"/>
          <path d="M42.68,27.68l-.43-.87c-.18-.34-.29-.59-.43-.86h-.02c-.1.28-.22.53-.38.86l-.39.87h-1.24l1.4-2.44-1.35-2.38h1.25l.42.88c.14.29.25.53.36.8h.02c.11-.31.21-.52.33-.8l.41-.88h1.24l-1.36,2.35,1.43,2.47h-1.26Z" fill="#29b5e7"/>
        </g>
        <g>
          <path d="M16.21,32.01h-1.77v1.15h1.98v.9h-3.07v-4.82h2.97v.9h-1.88v1h1.77v.88h0Z" fill="#fff"/>
          <path d="M19.54,34.05l-1.54-4.82h1.2l.59,2.04c.16.58.32,1.13.43,1.72h.02c.12-.58.27-1.15.43-1.7l.61-2.06h1.16l-1.62,4.82s-1.28,0-1.28,0Z" fill="#fff"/>
          <path d="M27.01,32.01h-1.77v1.15h1.98v.9h-3.07v-4.82h2.97v.9h-1.88v1h1.77v.88h0Z" fill="#fff"/>
          <path d="M29.15,34.05v-4.82h1.27l1,1.76c.29.51.56,1.11.79,1.65h.02c-.06-.64-.09-1.29-.09-2.02v-1.4h1v4.82h-1.15l-1.03-1.86c-.29-.52-.61-1.14-.84-1.7h-.03c.04.64.05,1.32.05,2.11v1.45h-1,.01Z" fill="#fff"/>
          <path d="M36.21,30.14h-1.3v-.92h3.71v.92h-1.32v3.91h-1.09v-3.91h0Z" fill="#fff"/>
          <path d="M40.35,32.92c.29.15.74.3,1.21.3.5,0,.77-.21.77-.52s-.23-.47-.81-.68c-.8-.29-1.33-.73-1.33-1.43,0-.82.7-1.44,1.83-1.44.55,0,.95.11,1.23.24l-.24.87c-.18-.09-.54-.23-1-.23s-.7.22-.7.47c0,.31.27.44.9.68.85.32,1.24.76,1.24,1.44,0,.81-.61,1.49-1.94,1.49-.55,0-1.09-.15-1.37-.3l.22-.9h-.01Z" fill="#fff"/>
        </g>
      </g>
    </g>
  </g>
</svg>