<svg width="1034" height="288" viewBox="0 0 1034 288" fill="none" xmlns="http://www.w3.org/2000/svg">
<path d="M1028.73 191.411L1029.38 190.724L1028.73 190.037L971.598 129.594L969.872 127.768V130.281V174.613H950.231C947.914 148.922 938.451 127.433 923.481 112.309C908.326 96.9968 887.585 88.2669 863.082 88.2669C840.236 88.2669 819.783 95.3506 804.084 109.02C788.556 122.541 777.746 142.446 773.833 168.137H734.735V92.5049V91.5049H733.735H693.853H692.853V92.5049V248.007H564.633C567.157 244.775 569.812 241.521 572.51 238.215C577.711 231.841 583.071 225.273 587.955 218.288C587.957 218.285 587.959 218.283 587.961 218.28L660.169 118.997L660.36 118.734V118.409V93.5842V92.5842H659.36H480.43H440.547H412.522H371.484V83.8703C371.484 70.983 373.367 59.3202 378.222 50.9111C383.029 42.5841 390.785 37.3798 402.821 37.3798H402.84H402.859H402.878H402.897H402.915H402.934H402.953H402.972H402.991H403.009H403.028H403.047H403.065H403.084H403.103H403.121H403.14H403.158H403.177H403.195H403.214H403.232H403.25H403.269H403.287H403.306H403.324H403.342H403.36H403.379H403.397H403.415H403.433H403.451H403.469H403.488H403.506H403.524H403.542H403.56H403.578H403.596H403.614H403.632H403.649H403.667H403.685H403.703H403.721H403.739H403.756H403.774H403.792H403.81H403.827H403.845H403.862H403.88H403.898H403.915H403.933H403.95H403.968H403.985H404.003H404.02H404.038H404.055H404.072H404.09H404.107H404.124H404.142H404.159H404.176H404.193H404.211H404.228H404.245H404.262H404.279H404.296H404.313H404.33H404.347H404.364H404.381H404.398H404.415H404.432H404.449H404.466H404.483H404.5H404.517H404.533H404.55H404.567H404.584H404.6H404.617H404.634H404.651H404.667H404.684H404.7H404.717H404.734H404.75H404.767H404.783H404.8H404.816H404.833H404.849H404.866H404.882H404.898H404.915H404.931H404.947H404.964H404.98H404.996H405.012H405.029H405.045H405.061H405.077H405.093H405.11H405.126H405.142H405.158H405.174H405.19H405.206H405.222H405.238H405.254H405.27H405.286H405.302H405.318H405.334H405.349H405.365H405.381H405.397H405.413H405.428H405.444H405.46H405.476H405.491H405.507H405.523H405.538H405.554H405.57H405.585H405.601H405.617H405.632H405.648H405.663H405.679H405.694H405.71H405.725H405.741H405.756H405.771H405.787H405.802H405.817H405.833H405.848H405.863H405.879H405.894H405.909H405.925H405.94H405.955H405.97H405.985H406.001H406.016H406.031H406.046H406.061H406.076H406.091H406.106H406.121H406.136H406.151H406.166H406.181H406.196H406.211H406.226H406.241H406.256H406.271H406.286H406.301H406.316H406.33H406.345H406.36H406.375H406.39H406.404H406.419H406.434H406.449H406.463H406.478H406.493H406.507H406.522H406.537H406.551H406.566H406.58H406.595H406.61H406.624H406.639H406.653H406.668H406.682H406.697H406.711H406.726H406.74H406.755H406.769H406.783H406.798H406.812H406.826H406.841H406.855H406.87H406.884H406.898H406.912H406.927H406.941H406.955H406.969H406.984H406.998H407.012H407.026H407.04H407.055H407.069H407.083H407.097H407.111H407.125H407.139H407.154H407.168H407.182H407.196H407.21H407.224H407.238H407.252H407.266H407.28H407.294H407.308H407.322H407.336H407.349H407.363H407.377H407.391H407.405H407.419H407.433H407.447H407.46H407.474H407.488H407.502H407.516H407.529H407.543H407.557H407.571H407.584H407.598H407.612H407.626H407.639H407.653H407.667H407.68H407.694H407.708H407.721H407.735H407.749H407.762H407.776H407.789H407.803H407.817H407.83H407.844H407.857H407.871H407.884H407.898H407.911H407.925H407.938H407.952H407.965H407.979H407.992H408.006H408.019H408.032H408.046H408.059H408.073H408.086H408.099H408.113H408.126H408.139H408.153H408.166H408.18H408.193H408.206H408.219H408.233H408.246H408.259H408.273H408.286H408.299H408.312H408.326H408.339H408.352H408.365H408.379H408.392H408.405H408.418H408.431H408.444H408.458H408.471H408.484H408.497H408.51H408.523H408.537H408.55H408.563H408.576H408.589H408.602H408.615H408.628H408.641H408.654H408.667H408.681H408.694H408.707H408.72H408.733H408.746H408.759H408.772H408.785H408.798H408.811H408.824H408.837H408.85H408.863H408.876H408.889H408.901H408.914H408.927H408.94H408.953H408.966H408.979H408.992H409.005H409.018H409.031H409.044H409.057H409.069H409.082H409.095H409.108H409.121H409.134H409.147H409.159H409.172H409.185H409.198H409.211H409.224H409.236H409.249H409.262H409.275H409.288H409.301H409.313H409.326H409.339H409.352H409.364H409.377H409.39H409.403H409.416H409.428H409.441H409.454H409.467H409.479H409.492H409.505H409.518H409.53H409.543H409.556H409.569H409.581H409.594H409.607H409.619H409.632H409.645H409.658H409.67H409.683H409.696H409.708H409.721H409.734H409.746H409.759H409.772H409.785H409.797H409.81H409.823H409.835H409.848H409.861H409.873H409.886H409.899H409.911H409.924H409.937H409.949H409.962H409.975H409.987H410H410.012H410.025H410.038H410.05H410.063H410.066C413.376 39.5329 416.743 40.6178 421.145 40.6178C430.322 40.6178 438.314 32.6136 438.314 23.4279C438.314 14.2578 431.454 7.42928 422.446 6.25837C415.87 4.07703 408.238 3 398.509 3C383.31 3 364.658 7.33443 353.6 19.4907C332.067 39.9988 331.762 70.0094 331.758 90.4256H306.888H299.343H258.305V81.7116C258.305 68.8244 260.188 57.1615 265.043 48.7525C269.85 40.4255 277.606 35.2212 289.642 35.2212H289.655H289.667H289.68H289.692H289.705H289.717H289.73H289.742H289.755H289.767H289.78H289.792H289.804H289.817H289.829H289.841H289.853H289.866H289.878H289.89H289.902H289.914H289.926H289.938H289.95H289.962H289.974H289.986H289.998H290.01H290.022H290.034H290.046H290.058H290.07H290.082H290.093H290.105H290.117H290.129H290.14H290.152H290.164H290.175H290.187H290.199H290.21H290.222H290.233H290.245H290.256H290.268H290.279H290.291H290.302H290.314H290.325H290.336H290.348H290.359H290.37H290.382H290.393H290.404H290.415H290.427H290.438H290.449H290.46H290.471H290.483H290.494H290.505H290.516H290.527H290.538H290.549H290.56H290.571H290.582H290.593H290.604H290.615H290.626H290.637H290.647H290.658H290.669H290.68H290.691H290.702H290.712H290.723H290.734H290.745H290.755H290.766H290.777H290.787H290.798H290.809H290.819H290.83H290.84H290.851H290.862H290.872H290.883H290.893H290.904H290.914H290.925H290.935H290.946H290.956H290.966H290.977H290.987H290.998H291.008H291.018H291.029H291.039H291.049H291.06H291.07H291.08H291.091H291.101H291.111H291.121H291.132H291.142H291.152H291.162H291.172H291.182H291.193H291.203H291.213H291.223H291.233H291.243H291.253H291.263H291.273H291.283H291.293H291.303H291.314H291.324H291.334H291.344H291.353H291.363H291.373H291.383H291.393H291.403H291.413H291.423H291.433H291.443H291.453H291.463H291.473H291.482H291.492H291.502H291.512H291.522H291.532H291.541H291.551H291.561H291.571H291.581H291.59H291.6H291.61H291.62H291.629H291.639H291.649H291.658H291.668H291.678H291.688H291.697H291.707H291.717H291.726H291.736H291.746H291.755H291.765H291.775H291.784H291.794H291.803H291.813H291.823H291.832H291.842H291.852H291.861H291.871H291.88H291.89H291.9H291.909H291.919H291.928H291.938H291.947H291.957H291.966H291.976H291.986H291.995H292.005H292.014H292.024H292.033H292.043H292.052H292.062H292.071H292.081H292.09H292.1H292.109H292.119H292.128H292.138H292.147H292.157H292.166H292.176H292.185H292.195H292.204H292.214H292.223H292.233H292.242H292.252H292.261H292.271H292.28H292.289H292.299H292.308H292.318H292.327H292.337H292.346H292.356H292.365H292.375H292.384H292.394H292.403H292.413H292.422H292.432H292.441H292.451H292.46H292.47H292.479H292.488H292.498H292.507H292.517H292.526H292.536H292.545H292.555H292.564H292.574H292.583H292.593H292.602H292.612H292.621H292.631H292.641H292.65H292.66H292.669H292.679H292.688H292.698H292.707H292.717H292.726H292.736H292.746H292.755H292.765H292.774H292.784H292.793H292.803H292.813H292.822H292.832H292.841H292.851H292.861H292.87H292.88H292.889H292.899H292.909H292.918H292.928H292.938H292.947H292.957H292.967H292.976H292.986H292.996H293.006H293.015H293.025H293.035H293.044H293.054H293.064H293.074H293.083H293.093H293.103H293.113H293.123H293.132H293.142H293.152H293.162H293.172H293.181H293.191H293.201H293.211H293.221H293.231H293.241H293.251H293.261H293.27H293.28H293.29H293.3H293.31H293.32H293.33H293.34H293.35H293.36H293.37H293.38H293.39H293.4H293.41H293.42H293.431H293.441H293.451H293.461H293.471H293.481H293.491H293.501H293.512H293.522H293.532H293.542H293.552H293.563H293.573H293.583H293.593H293.604H293.614H293.624H293.635H293.645H293.655H293.666H293.676H293.686H293.697H293.707H293.718H293.728H293.739H293.749H293.759H293.77H293.781H293.791H293.802H293.812H293.823H293.833H293.844H293.854H293.865H293.876H293.886H293.897H293.908H293.918H293.929H293.94H293.951H293.961H293.972H293.983H293.994H294.005H294.015H294.026H294.037H294.048H294.059H294.07H294.081H294.092H294.103H294.114H294.125H294.136H294.147H294.158H294.169H294.18H294.191H294.202H294.213H294.225H294.236H294.247H294.258H294.27H294.281H294.292H294.303H294.315H294.326H294.337H294.349H294.36H294.371H294.383H294.394H294.406H294.417H294.429H294.44H294.452H294.464H294.475H294.487H294.498H294.51H294.522H294.533H294.545H294.557H294.569H294.58H294.592H294.604H294.616H294.623C296.227 36.7643 297.866 37.8375 299.657 38.5273C301.555 39.2582 303.571 39.5385 305.811 39.5385H305.823H305.836H305.848H305.861H305.873H305.886H305.898H305.911H305.923H305.936H305.948H305.96H305.973H305.985H305.997H306.01H306.022H306.034H306.046H306.058H306.07H306.083H306.095H306.107H306.119H306.131H306.143H306.155H306.167H306.179H306.19H306.202H306.214H306.226H306.238H306.25H306.261H306.273H306.285H306.297H306.308H306.32H306.332H306.343H306.355H306.366H306.378H306.389H306.401H306.412H306.424H306.435H306.447H306.458H306.469H306.481H306.492H306.503H306.515H306.526H306.537H306.548H306.559H306.571H306.582H306.593H306.604H306.615H306.626H306.637H306.648H306.659H306.67H306.681H306.692H306.703H306.714H306.725H306.735H306.746H306.757H306.768H306.779H306.789H306.8H306.811H306.821H306.832H306.843H306.853H306.864H306.874H306.885H306.896H306.906H306.917H306.927H306.938H306.948H306.958H306.969H306.979H306.99H307H307.01H307.02H307.031H307.041H307.051H307.061H307.072H307.082H307.092H307.102H307.112H307.122H307.132H307.142H307.153H307.163H307.173H307.183H307.193H307.202H307.212H307.222H307.232H307.242H307.252H307.262H307.272H307.281H307.291H307.301H307.311H307.32H307.33H307.34H307.35H307.359H307.369H307.378H307.388H307.398H307.407H307.417H307.426H307.436H307.445H307.455H307.464H307.474H307.483H307.493H307.502H307.511H307.521H307.53H307.539H307.549H307.558H307.567H307.577H307.586H307.595H307.604H307.613H307.623H307.632H307.641H307.65H307.659H307.668H307.677H307.686H307.695H307.704H307.713H307.722H307.731H307.74H307.749H307.758H307.767H307.776H307.785H307.794H307.803H307.811H307.82H307.829H307.838H307.847H307.855H307.864H307.873H307.882H307.89H307.899H307.908H307.916H307.925H307.934H307.942H307.951H307.959H307.968H307.977H307.985H307.994H308.002H308.011H308.019H308.027H308.036H308.044H308.053H308.061H308.07H308.078H308.086H308.095H308.103H308.111H308.12H308.128H308.136H308.144H308.153H308.161H308.169H308.177H308.186H308.194H308.202H308.21H308.218H308.226H308.234H308.243H308.251H308.259H308.267H308.275H308.283H308.291H308.299H308.307H308.315H308.323H308.331H308.339H308.347H308.355H308.363H308.371H308.378H308.386H308.394H308.402H308.41H308.418H308.426H308.433H308.441H308.449H308.457H308.464H308.472H308.48H308.488H308.495H308.503H308.511H308.518H308.526H308.534H308.541H308.549H308.557H308.564H308.572H308.579H308.587H308.594H308.602H308.61H308.617H308.625H308.632H308.64H308.647H308.655H308.662H308.67H308.677H308.684H308.692H308.699H308.707H308.714H308.721H308.729H308.736H308.743H308.751H308.758H308.766H308.773H308.78H308.787H308.795H308.802H308.809H308.816H308.824H308.831H308.838H308.845H308.853H308.86H308.867H308.874H308.881H308.889H308.896H308.903H308.91H308.917H308.924H308.931H308.938H308.946H308.953H308.96H308.967H308.974H308.981H308.988H308.995H309.002H309.009H309.016H309.023H309.03H309.037H309.044H309.051H309.058H309.065H309.072H309.079H309.086H309.093H309.099H309.106H309.113H309.12H309.127H309.134H309.141H309.148H309.155H309.161H309.168H309.175H309.182H309.189H309.195H309.202H309.209H309.216H309.223H309.229H309.236H309.243H309.25H309.256H309.263H309.27H309.277H309.283H309.29H309.297H309.304H309.31H309.317H309.324H309.33H309.337H309.344H309.35H309.357H309.364H309.37H309.377H309.384H309.39H309.397H309.403H309.41H309.417H309.423H309.43H309.436H309.443H309.45H309.456H309.463H309.469H309.476H309.483H309.489H309.496H309.502H309.509H309.515H309.522H309.528H309.535H309.541H309.548H309.554H309.561H309.567H309.574H309.58H309.587H309.593H309.6H309.606H309.613H309.619H309.626H309.632H309.639H309.645H309.651H309.658H309.664H309.671H309.677H309.684H309.69H309.697H309.703H309.709H309.716H309.722H309.729H309.735H309.741H309.748H309.754H309.761H309.767H309.773H309.78H309.786H309.793H309.799H309.805H309.812H309.818H309.824H309.831H309.837H309.844H309.85H309.856H309.863H309.869H309.875H309.882H309.888H309.894H309.901H309.907H309.913H309.92H309.926H309.932H309.939H309.945H309.951H309.958H309.964H309.97H309.977H309.983H309.989H309.996H310.002H310.008H310.015H310.021H310.027H310.034H310.04H310.046H310.053H310.059H310.065H310.072H310.078H310.084H310.091H310.097H310.103H310.109H310.116H310.122H310.205L310.287 39.5249C317.285 38.357 322.979 31.4211 322.979 23.4279C322.979 20.0123 322.123 17.1227 320.528 14.6553C318.941 12.1983 316.655 10.2122 313.871 8.53945L313.838 8.51966L313.803 8.50245C307.153 5.17254 297.284 3 284.253 3C267.925 3 250.388 7.35894 237.205 20.5534C215.654 41.0618 215.35 71.0832 215.345 91.5049H190.476H159.217H139.815H119.335H118.335V92.5049V209.072C118.335 236.499 97.3116 250.166 79.4526 250.166C66.8573 250.166 58.2963 244.944 52.8241 235.811C47.3031 226.597 44.8821 213.322 44.8821 197.2V92.5049V91.5049H43.8821H4H3V92.5049V203.676C3 233.509 10.3131 253.75 21.8511 266.542C33.4005 279.346 49.0576 284.546 65.44 284.546C95.1949 284.546 114.635 266.965 122.756 253.873L124.804 283.615L124.869 284.546H125.802H161.373H162.447L162.37 283.475C161.293 268.38 160.217 246.818 160.217 226.342V125.885H215.345V283.546V284.546H216.345H256.227H257.227V283.546V125.885H329.602V283.546V284.546H330.602H370.484H371.484V283.546V125.885H439.547V282.467V283.467H440.547H480.43H481.43V282.467V124.805H609.65C602.243 134.342 594.82 143.892 586.36 154.482L586.345 154.501L586.33 154.52L513.034 255.977L512.844 256.239V256.563V283.546V284.546H513.844H715.411H733.735H734.735V283.546V203.596H772.737C776.115 229.28 786.385 249.448 801.507 263.238C816.802 277.186 836.992 284.546 859.848 284.546C897.803 284.546 939.007 260.754 948.008 206.834H968.794V252.245V254.757L970.52 252.933L1028.73 191.411ZM814.499 186.406C814.499 170.325 817.715 153.518 825.142 140.769C832.543 128.064 844.1 119.409 860.926 119.409C877.74 119.409 889.301 128.321 896.708 141.169C904.14 154.058 907.354 170.869 907.354 186.406C907.354 204.603 902.808 221.399 894.72 233.615C886.642 245.813 875.07 253.404 860.926 253.404C846.236 253.404 834.669 245.806 826.733 233.621C818.78 221.411 814.499 204.615 814.499 186.406ZM436.314 53.6491C436.314 60.3483 438.547 66.2754 442.657 70.5336C446.773 74.7971 452.702 77.315 459.949 77.315C467.715 77.315 473.914 74.8105 478.173 70.5456C482.429 66.2837 484.663 60.3494 484.663 53.6491C484.663 46.9499 482.43 41.0228 478.319 36.7646C474.203 32.5011 468.275 29.9832 461.027 29.9832C446.492 29.9832 436.314 40.1154 436.314 53.6491ZM689.619 53.6491C689.619 60.3483 691.852 66.2754 695.963 70.5336C700.079 74.7971 706.008 77.315 713.255 77.315C721.021 77.315 727.219 74.8105 731.478 70.5456C735.734 66.2837 737.968 60.3494 737.968 53.6491C737.968 46.9499 735.736 41.0228 731.625 36.7646C727.509 32.5011 721.58 29.9832 714.333 29.9832C699.798 29.9832 689.619 40.1154 689.619 53.6491Z" fill="black" stroke="black" stroke-width="2"/>
</svg>
