<?xml version="1.0" encoding="UTF-8"?>
<svg id="_Слой_1" data-name="Слой_1" xmlns="http://www.w3.org/2000/svg" version="1.1" viewBox="0 0 1596.46 292.49">
  <!-- Generator: Adobe Illustrator 29.7.1, SVG Export Plug-In . SVG Version: 2.1.1 Build 8)  -->
  <defs>
    <style>
      .st0 {
        fill: #3f4142;
      }

      .st1, .st2 {
        fill: #29bdef;
      }

      .st2 {
        fill-rule: evenodd;
      }
    </style>
  </defs>
  <path class="st2" d="M233.05,109.2c.45-3.39.68-6.86.68-10.38,0-43.63-35.37-79-79-79s-79.01,35.37-79.01,79c0,3.52.23,6.99.68,10.38-28.69,11.84-48.87,40.08-48.87,73.04,0,43.63,35.37,79,79.01,79,18.15,0,34.85-6.11,48.19-16.4,13.34,10.29,30.05,16.4,48.19,16.4,43.63,0,79-35.37,79-79,0-32.96-20.19-61.21-48.87-73.04ZM154.73,34.38c35.59,0,64.44,28.85,64.44,64.44,0,2.03-.09,4.05-.28,6.03-5.16-1.05-10.5-1.61-15.97-1.61-18.14,0-34.85,6.11-48.19,16.4-3.92,3.01-7.55,6.39-10.84,10.09-7.09,7.96-12.59,17.35-16,27.7-16.15-7.41-28.7-21.29-34.34-38.32-1.52-4.55-2.53-9.32-2.99-14.26-.19-1.98-.28-4-.28-6.03,0-35.59,28.86-64.44,64.45-64.44ZM143.89,234.75c-10.53,7.52-23.42,11.93-37.35,11.93-35.59,0-64.45-28.85-64.45-64.44,0-26.01,15.42-48.43,37.61-58.6,7.23,21.87,23.74,39.5,44.88,48.23,4.53,1.87,9.26,3.34,14.17,4.35,5.16,1.05,10.5,1.61,15.98,1.61s10.81-.56,15.97-1.61c.19,1.98.28,3.99.28,6.02,0,16.42-6.14,31.4-16.25,42.78-3.23,3.64-6.87,6.91-10.84,9.73ZM202.92,246.68c-13.93,0-26.82-4.41-37.36-11.93,12.43-13.96,19.98-32.35,19.98-52.51,0-3.52-.23-6.98-.67-10.37-.66-4.98-1.77-9.8-3.31-14.44-3.41-10.35-8.91-19.74-16-27.7,10.54-7.52,23.43-11.93,37.36-11.93,4.45,0,8.79.45,12.99,1.31,4.83.99,9.47,2.52,13.84,4.52,22.2,10.18,37.61,32.59,37.61,58.61,0,35.59-28.85,64.44-64.44,64.44Z"/>
  <g>
    <path class="st1" d="M378.75,160.28h-27.02V30.2h34.35l27.02,47.67c7.33,13,14.41,27.86,21.23,44.58h.38c-1.54-15.31-2.31-33.45-2.31-54.43V30.2h27.02v130.08h-30.88l-27.79-50.18c-9.78-17.63-17.31-32.94-22.58-45.93h-.77c.9,16.21,1.35,35.19,1.35,56.93v39.18Z"/>
    <path class="st1" d="M553.99,126.89h-37.25l-9.26,33.39h-30.3l39.57-130.08h38.6l40.53,130.08h-31.84l-10.04-33.39ZM520.99,104.89h28.76l-8.11-27.6c-1.16-3.86-3.35-12.22-6.56-25.09h-.39c-.39,1.67-1.29,5.57-2.7,11.68-1.42,6.11-2.51,10.58-3.28,13.41l-7.72,27.6Z"/>
    <path class="st1" d="M679.64,160.28h-34.35l-41.69-130.08h32.23l15.83,55c5.53,19.43,9.39,34.93,11.58,46.51h.58c3.09-14.67,7.01-29.98,11.77-45.93l16.6-55.58h31.27l-43.81,130.08Z"/>
    <path class="st1" d="M764.17,160.28V54.9h-35.13v-24.7h99.97v24.7h-35.51v105.38h-29.34Z"/>
    <path class="st1" d="M923.58,81.34v23.93h-47.86v30.88h53.46v24.12h-82.8V30.2h80.1v24.12h-50.76v27.02h47.86Z"/>
    <path class="st1" d="M950.99,160.28V30.2h29.34v105.38h51.72v24.7h-81.06Z"/>
    <path class="st1" d="M1128.35,81.34v23.93h-47.86v30.88h53.46v24.12h-82.8V30.2h80.1v24.12h-50.76v27.02h47.86Z"/>
    <path class="st1" d="M1246.66,133.64l4.25,23.16c-7.72,3.73-18.79,5.6-33.2,5.6-21.75,0-38.54-6.05-50.37-18.14-11.84-12.09-17.76-27.79-17.76-47.09,0-21.49,6.72-38.34,20.17-50.57,13.44-12.22,30.4-18.33,50.86-18.33,14.41,0,25.09,1.93,32.04,5.79l-6.18,23.16c-7.46-3.21-15.7-4.83-24.7-4.83-12.22,0-22.16,3.7-29.82,11.1-7.66,7.4-11.48,18.04-11.48,31.94,0,13.12,3.67,23.48,11,31.07,7.33,7.59,17.5,11.39,30.49,11.39,9.78,0,18.01-1.41,24.7-4.25Z"/>
    <path class="st1" d="M1329.26,27.88c19.3,0,34.42,6.27,45.36,18.82,10.93,12.54,16.41,28.27,16.41,47.19,0,21.23-5.82,37.96-17.47,50.18-11.65,12.23-27.12,18.33-46.42,18.33s-33.68-6.27-44.68-18.82-16.5-28.4-16.5-47.57,5.82-35.96,17.47-48.83c11.64-12.86,26.92-19.3,45.84-19.3ZM1351.65,63.78c-5.53-8.36-13.19-12.54-22.97-12.54s-17.5,4.12-23.16,12.35c-5.66,8.24-8.49,18.85-8.49,31.84s2.83,23.52,8.49,31.56c5.66,8.04,13.38,12.06,23.16,12.06s17.27-4.12,22.87-12.35c5.6-8.23,8.4-18.85,8.4-31.84s-2.77-22.71-8.3-31.07Z"/>
    <path class="st1" d="M1524,160.28l-2.12-49.79c-.77-20.84-1.16-38.66-1.16-53.46h-.39c-4.51,17.37-9.39,34.16-14.67,50.37l-15.83,50.76h-22.97l-13.9-50.18c-4.38-15.7-8.3-32.68-11.77-50.95h-.39c-.65,20.07-1.35,38.02-2.12,53.85l-2.51,49.41h-27.21l8.3-130.08h39.18l12.74,43.42c4.37,15.7,8.04,31.2,11,46.51h.77c3.99-17.37,8.11-32.94,12.35-46.71l13.7-43.23h38.6l6.95,130.08h-28.56Z"/>
  </g>
  <g>
    <path class="st0" d="M374.51,261.47v-52.8h-19.84v-6.51h48.3v6.51h-19.94v52.8h-8.52Z"/>
    <path class="st0" d="M462.31,227.33v6.34h-25.26v21.38h28.27v6.42h-36.78v-59.31h35.33v6.42h-26.81v18.74h25.26Z"/>
    <path class="st0" d="M494.54,261.47v-59.31h8.52v52.89h27.88v6.42h-36.4Z"/>
    <path class="st0" d="M592.4,227.33v6.34h-25.26v21.38h28.27v6.42h-36.78v-59.31h35.33v6.42h-26.81v18.74h25.26Z"/>
    <path class="st0" d="M681.27,261.47l-1.55-26.05c-.71-12.14-1.06-20.68-1.06-25.61h-.19c-2.97,8.68-5.71,16.19-8.23,22.53l-11.52,28.78h-6.39l-10.65-28.25c-3.29-9.03-5.78-16.72-7.45-23.06h-.19c-.19,7.57-.61,16.31-1.26,26.22l-1.74,25.43h-8.03l4.55-59.31h10.75l11.13,28.69c2.58,7.04,4.77,13.7,6.58,19.98h.19c1.55-5.4,3.87-12.06,6.97-19.98l11.62-28.69h10.75l4.07,59.31h-8.33Z"/>
    <path class="st0" d="M754.64,242.81h-23.13l-6.78,18.66h-8.71l22.26-59.31h10.07l22.26,59.31h-9l-6.97-18.66ZM733.25,236.83h19.75l-6.49-17.07c-.9-2.41-2.03-6.01-3.39-10.82h-.19c-1.49,5.28-2.58,8.86-3.29,10.74l-6.39,17.16Z"/>
    <path class="st0" d="M810.98,261.47v-52.8h-19.84v-6.51h48.3v6.51h-19.94v52.8h-8.52Z"/>
    <path class="st0" d="M864.99,202.16h8.52v59.31h-8.52v-59.31Z"/>
    <path class="st0" d="M950.46,253.46l1.65,6.16c-4,1.88-9.75,2.82-17.23,2.82-9.49,0-17.21-2.64-23.18-7.92-5.97-5.28-8.95-12.67-8.95-22.18s3.15-16.85,9.44-22.57,14.5-8.58,24.64-8.58c6.65,0,11.81.88,15.49,2.64l-2.13,6.25c-3.62-1.64-7.97-2.46-13.07-2.46-7.74,0-13.92,2.16-18.54,6.47-4.61,4.31-6.92,10.31-6.92,18s2.21,13.14,6.63,17.42c4.42,4.28,10.53,6.42,18.34,6.42,5.48,0,10.1-.82,13.84-2.46Z"/>
    <path class="st0" d="M977.86,258.57l2.23-6.42c4.45,2.58,9.45,3.87,15,3.87,4.26,0,7.6-.92,10.02-2.77,2.42-1.85,3.63-4.3,3.63-7.35,0-2.7-.95-4.94-2.86-6.73-1.9-1.79-5.05-3.45-9.44-4.97-11.49-3.81-17.23-9.44-17.23-16.9,0-4.69,1.95-8.55,5.86-11.57,3.9-3.02,8.99-4.53,15.25-4.53,5.94,0,10.71.97,14.33,2.9l-2.32,6.25c-3.36-1.88-7.45-2.82-12.29-2.82-4.07,0-7.13.9-9.2,2.68-2.07,1.79-3.1,3.86-3.1,6.2,0,2.7.98,4.87,2.95,6.51,1.97,1.64,5.31,3.29,10.02,4.93,5.68,2,9.86,4.34,12.54,7.04,2.68,2.7,4.02,6.16,4.02,10.38,0,4.87-1.95,8.95-5.86,12.23-3.91,3.29-9.53,4.93-16.89,4.93-3.1,0-6.2-.37-9.29-1.1-3.1-.73-5.55-1.66-7.36-2.77Z"/>
    <path class="st0" d="M1082.88,258.57l2.23-6.42c4.45,2.58,9.45,3.87,15,3.87,4.26,0,7.6-.92,10.02-2.77,2.42-1.85,3.63-4.3,3.63-7.35,0-2.7-.95-4.94-2.86-6.73-1.9-1.79-5.05-3.45-9.44-4.97-11.49-3.81-17.23-9.44-17.23-16.9,0-4.69,1.95-8.55,5.86-11.57,3.9-3.02,8.99-4.53,15.25-4.53,5.94,0,10.71.97,14.33,2.9l-2.32,6.25c-3.36-1.88-7.45-2.82-12.29-2.82-4.07,0-7.13.9-9.2,2.68-2.07,1.79-3.1,3.86-3.1,6.2,0,2.7.98,4.87,2.95,6.51,1.97,1.64,5.31,3.29,10.02,4.93,5.68,2,9.86,4.34,12.54,7.04,2.68,2.7,4.02,6.16,4.02,10.38,0,4.87-1.95,8.95-5.86,12.23-3.91,3.29-9.53,4.93-16.89,4.93-3.1,0-6.2-.37-9.29-1.1-3.1-.73-5.55-1.66-7.36-2.77Z"/>
    <path class="st0" d="M1175.33,261.47h-8.52v-25.17l-20.72-34.14h9.68l9.2,16.37c3.55,6.63,5.71,10.71,6.49,12.23h.19c.77-1.64,2.97-5.72,6.58-12.23l9.39-16.37h9.49l-21.78,34.06v25.26Z"/>
    <path class="st0" d="M1219.76,258.57l2.23-6.42c4.45,2.58,9.45,3.87,15,3.87,4.26,0,7.6-.92,10.02-2.77,2.42-1.85,3.63-4.3,3.63-7.35,0-2.7-.95-4.94-2.86-6.73-1.9-1.79-5.05-3.45-9.44-4.97-11.49-3.81-17.23-9.44-17.23-16.9,0-4.69,1.95-8.55,5.86-11.57,3.9-3.02,8.99-4.53,15.25-4.53,5.94,0,10.71.97,14.33,2.9l-2.32,6.25c-3.36-1.88-7.45-2.82-12.29-2.82-4.07,0-7.13.9-9.2,2.68-2.07,1.79-3.1,3.86-3.1,6.2,0,2.7.98,4.87,2.95,6.51,1.97,1.64,5.31,3.29,10.02,4.93,5.68,2,9.86,4.34,12.54,7.04,2.68,2.7,4.02,6.16,4.02,10.38,0,4.87-1.95,8.95-5.86,12.23-3.91,3.29-9.53,4.93-16.89,4.93-3.1,0-6.2-.37-9.29-1.1-3.1-.73-5.55-1.66-7.36-2.77Z"/>
    <path class="st0" d="M1301.55,261.47v-52.8h-19.84v-6.51h48.3v6.51h-19.94v52.8h-8.52Z"/>
    <path class="st0" d="M1389.35,227.33v6.34h-25.26v21.38h28.27v6.42h-36.78v-59.31h35.33v6.42h-26.81v18.74h25.26Z"/>
    <path class="st0" d="M1478.21,261.47l-1.55-26.05c-.71-12.14-1.06-20.68-1.06-25.61h-.19c-2.97,8.68-5.71,16.19-8.23,22.53l-11.52,28.78h-6.39l-10.65-28.25c-3.29-9.03-5.78-16.72-7.45-23.06h-.19c-.19,7.57-.61,16.31-1.26,26.22l-1.74,25.43h-8.03l4.55-59.31h10.75l11.13,28.69c2.58,7.04,4.77,13.7,6.58,19.98h.19c1.55-5.4,3.87-12.06,6.97-19.98l11.62-28.69h10.75l4.07,59.31h-8.33Z"/>
    <path class="st0" d="M1514.61,258.57l2.23-6.42c4.45,2.58,9.45,3.87,15,3.87,4.26,0,7.6-.92,10.02-2.77,2.42-1.85,3.63-4.3,3.63-7.35,0-2.7-.95-4.94-2.86-6.73-1.9-1.79-5.05-3.45-9.44-4.97-11.49-3.81-17.23-9.44-17.23-16.9,0-4.69,1.95-8.55,5.86-11.57,3.9-3.02,8.99-4.53,15.25-4.53,5.94,0,10.71.97,14.33,2.9l-2.32,6.25c-3.36-1.88-7.45-2.82-12.29-2.82-4.07,0-7.13.9-9.2,2.68-2.07,1.79-3.1,3.86-3.1,6.2,0,2.7.98,4.87,2.95,6.51,1.97,1.64,5.31,3.29,10.02,4.93,5.68,2,9.86,4.34,12.54,7.04,2.68,2.7,4.02,6.16,4.02,10.38,0,4.87-1.95,8.95-5.86,12.23-3.91,3.29-9.53,4.93-16.89,4.93-3.1,0-6.2-.37-9.29-1.1-3.1-.73-5.55-1.66-7.36-2.77Z"/>
  </g>
</svg>