<?xml version="1.0" encoding="UTF-8"?>
<svg id="_Слой_2" xmlns="http://www.w3.org/2000/svg" version="1.1" viewBox="0 0 605 357">
  <!-- Generator: Adobe Illustrator 29.6.1, SVG Export Plug-In . SVG Version: 2.1.1 Build 9)  -->
  <defs>
    <style>
      .st0 {
        stroke-width: .9px;
      }

      .st0, .st1 {
        stroke-miterlimit: 10;
      }

      .st0, .st1, .st2 {
        fill: none;
        stroke: #32bef0;
      }

      .st1, .st2 {
        stroke-width: 2px;
      }

      .st3 {
        fill-rule: evenodd;
      }

      .st3, .st4 {
        fill: #32bef0;
      }

      .st2 {
        stroke-linecap: round;
        stroke-linejoin: round;
      }
    </style>
  </defs>
  <g id="_Слой_1-2">
    <g>
      <path class="st2" d="M604.5,35.2v286.5c0,19.1-15.6,34.8-34.8,34.8H47.5c-19.1,0-34.7-15.6-34.7-34.8V35.2c0-19.1,15.6-34.7,34.7-34.7h522.2c19.1,0,34.8,15.6,34.8,34.7h0Z"/>
      <path class="st2" d="M95,.5v51.2c0,3.6-3,6.6-6.6,6.6h-7.9c-3.7,0-6.6-3-6.6-6.6V.5s21.2,0,21.2,0Z"/>
      <path class="st2" d="M132.4.5v51.2c0,3.6-3,6.6-6.6,6.6h-7.9c-3.6,0-6.6-3-6.6-6.6V.5h21.2Z"/>
      <path class="st2" d="M170.4.5v51.2c0,3.6-3,6.6-6.6,6.6h-7.9c-3.6,0-6.6-3-6.6-6.6V.5h21.2Z"/>
      <path class="st2" d="M207.1.5v51.2c0,3.6-3,6.6-6.6,6.6h-7.9c-3.6,0-6.6-3-6.6-6.6V.5h21.2Z"/>
      <path class="st2" d="M244.5.5v51.2c0,3.6-3,6.6-6.6,6.6h-7.9c-3.6,0-6.6-3-6.6-6.6V.5h21.2Z"/>
      <path class="st2" d="M282.5.5v51.2c0,3.6-3,6.6-6.6,6.6h-7.9c-3.6,0-6.6-3-6.6-6.6V.5h21.2Z"/>
      <path class="st2" d="M320.5.5v51.2c0,3.6-3,6.6-6.6,6.6h-7.9c-3.6,0-6.6-3-6.6-6.6V.5h21.2Z"/>
      <path class="st2" d="M357.9.5v51.2c0,3.6-3,6.6-6.6,6.6h-7.9c-3.6,0-6.6-3-6.6-6.6V.5h21.2Z"/>
      <path class="st2" d="M396,.5v51.2c0,3.6-3,6.6-6.6,6.6h-7.9c-3.6,0-6.6-3-6.6-6.6V.5h21.2Z"/>
      <path class="st2" d="M432.6.5v51.2c0,3.6-3,6.6-6.6,6.6h-7.9c-3.6,0-6.6-3-6.6-6.6V.5h21.2Z"/>
      <path class="st2" d="M470,.5v51.2c0,3.6-3,6.6-6.6,6.6h-7.9c-3.6,0-6.6-3-6.6-6.6V.5h21.2Z"/>
      <path class="st2" d="M508.1.5v51.2c0,3.6-3,6.6-6.6,6.6h-7.9c-3.6,0-6.6-3-6.6-6.6V.5h21.2Z"/>
      <path class="st2" d="M545.7.5v51.2c0,3.6-3,6.6-6.6,6.6h-7.9c-3.7,0-6.6-3-6.6-6.6V.5h21.2Z"/>
      <path class="st2" d="M95.3,356.5v-46.9c0-3.3-3-6.1-6.6-6.1h-7.9c-3.7,0-6.6,2.7-6.6,6.1v46.9s21.2,0,21.2,0Z"/>
      <path class="st2" d="M132.7,356.5v-46.9c0-3.3-3-6.1-6.6-6.1h-7.9c-3.6,0-6.6,2.7-6.6,6.1v46.9h21.2Z"/>
      <path class="st2" d="M170.7,356.5v-46.9c0-3.3-3-6.1-6.6-6.1h-7.9c-3.6,0-6.6,2.7-6.6,6.1v46.9h21.2Z"/>
      <path class="st2" d="M207.4,356.5v-46.9c0-3.3-3-6.1-6.6-6.1h-7.9c-3.6,0-6.6,2.7-6.6,6.1v46.9h21.2Z"/>
      <path class="st2" d="M244.8,356.5v-46.9c0-3.3-3-6.1-6.6-6.1h-7.9c-3.6,0-6.6,2.7-6.6,6.1v46.9h21.2Z"/>
      <path class="st2" d="M282.8,356.5v-46.9c0-3.3-3-6.1-6.6-6.1h-7.9c-3.6,0-6.6,2.7-6.6,6.1v46.9h21.2Z"/>
      <path class="st2" d="M320.9,356.5v-46.9c0-3.3-3-6.1-6.6-6.1h-7.9c-3.6,0-6.6,2.7-6.6,6.1v46.9h21.2Z"/>
      <path class="st2" d="M358.2,356.5v-46.9c0-3.3-3-6.1-6.6-6.1h-7.9c-3.6,0-6.6,2.7-6.6,6.1v46.9h21.2Z"/>
      <path class="st2" d="M396.3,356.5v-46.9c0-3.3-3-6.1-6.6-6.1h-7.9c-3.6,0-6.6,2.7-6.6,6.1v46.9h21.2Z"/>
      <path class="st2" d="M433,356.5v-46.9c0-3.3-3-6.1-6.6-6.1h-7.9c-3.6,0-6.6,2.7-6.6,6.1v46.9h21.2Z"/>
      <path class="st2" d="M470.3,356.5v-46.9c0-3.3-3-6.1-6.6-6.1h-7.9c-3.6,0-6.6,2.7-6.6,6.1v46.9h21.2Z"/>
      <path class="st2" d="M508.4,356.5v-46.9c0-3.3-3-6.1-6.6-6.1h-7.9c-3.6,0-6.6,2.7-6.6,6.1v46.9h21.2Z"/>
      <path class="st2" d="M546,356.5v-46.9c0-3.3-3-6.1-6.6-6.1h-7.9c-3.7,0-6.6,2.7-6.6,6.1v46.9h21.2Z"/>
      <g>
        <path class="st4" d="M501.7,126.9l2.7-.2c.1,1.1.4,2,.9,2.7s1.2,1.3,2.2,1.7c1,.4,2.1.6,3.3.6s2.1-.2,2.9-.5,1.5-.8,1.9-1.3c.4-.6.6-1.2.6-1.8s-.2-1.3-.6-1.8-1-.9-2-1.3c-.6-.2-1.9-.6-3.9-1.1s-3.4-.9-4.2-1.3c-1-.5-1.8-1.2-2.3-2-.5-.8-.8-1.7-.8-2.7s.3-2.1.9-3.1,1.5-1.7,2.7-2.2,2.5-.7,4-.7,3,.3,4.2.8,2.2,1.3,2.8,2.3c.7,1,1,2.1,1.1,3.4l-2.8.2c-.2-1.4-.7-2.4-1.5-3.1s-2.1-1.1-3.8-1.1-3,.3-3.8.9-1.2,1.4-1.2,2.3.3,1.4.8,1.9c.5.5,2,1,4.3,1.5,2.3.5,3.9,1,4.8,1.4,1.3.6,2.2,1.3,2.8,2.2s.9,1.9.9,3.1-.3,2.2-1,3.3c-.7,1-1.6,1.8-2.8,2.4-1.2.6-2.6.9-4.2.9s-3.6-.3-4.9-.9-2.4-1.4-3.1-2.6c-.8-1.1-1.1-2.4-1.2-3.9h0Z"/>
        <path class="st4" d="M529.3,133.8v-9.2l-8.3-12.5h3.5l4.3,6.5c.8,1.2,1.5,2.4,2.2,3.7.7-1.1,1.4-2.4,2.4-3.8l4.2-6.4h3.3l-8.6,12.5v9.2h-2.9Z"/>
        <path class="st4" d="M542.7,126.9l2.7-.2c.1,1.1.4,2,.9,2.7s1.2,1.3,2.2,1.7c1,.4,2.1.6,3.3.6s2.1-.2,2.9-.5,1.5-.8,1.9-1.3c.4-.6.6-1.2.6-1.8s-.2-1.3-.6-1.8-1-.9-2-1.3c-.6-.2-1.9-.6-3.9-1.1s-3.4-.9-4.2-1.3c-1-.5-1.8-1.2-2.3-2-.5-.8-.8-1.7-.8-2.7s.3-2.1.9-3.1,1.5-1.7,2.7-2.2,2.5-.7,4-.7,3,.3,4.2.8,2.2,1.3,2.8,2.3c.7,1,1,2.1,1.1,3.4l-2.8.2c-.2-1.4-.7-2.4-1.5-3.1s-2.1-1.1-3.8-1.1-3,.3-3.8.9-1.2,1.4-1.2,2.3.3,1.4.8,1.9c.5.5,2,1,4.3,1.5,2.3.5,3.9,1,4.8,1.4,1.3.6,2.2,1.3,2.8,2.2s.9,1.9.9,3.1-.3,2.2-1,3.3c-.7,1-1.6,1.8-2.8,2.4-1.2.6-2.6.9-4.2.9s-3.6-.3-4.9-.9-2.4-1.4-3.1-2.6c-.8-1.1-1.2-2.4-1.2-3.9h0Z"/>
      </g>
      <g>
        <path class="st4" d="M503.1,183.8v-2.5h9v7.8c-1.4,1.1-2.8,1.9-4.3,2.5-1.5.6-3,.8-4.5.8s-4-.4-5.7-1.3c-1.7-.9-3-2.2-3.9-3.9-.9-1.7-1.3-3.6-1.3-5.6s.4-4,1.3-5.8c.9-1.8,2.1-3.1,3.7-4s3.5-1.3,5.6-1.3,2.9.2,4.1.7c1.2.5,2.2,1.2,2.9,2.1.7.9,1.2,2,1.6,3.5l-2.5.7c-.3-1.1-.7-1.9-1.2-2.5s-1.1-1.1-2-1.5c-.9-.4-1.9-.6-2.9-.6s-2.4.2-3.3.6c-.9.4-1.7.9-2.3,1.5-.6.6-1,1.3-1.3,2.1-.5,1.3-.8,2.7-.8,4.3s.3,3.5,1,4.7,1.6,2.2,2.8,2.8c1.2.6,2.6.9,4,.9s2.4-.2,3.5-.7,2-1,2.6-1.5v-3.9h-6.2,0Z"/>
        <path class="st4" d="M515.5,185.3l2.6-.2c.1,1.1.4,1.9.9,2.6.5.7,1.2,1.2,2.1,1.6s2,.6,3.2.6,2-.2,2.8-.5c.8-.3,1.4-.8,1.8-1.3.4-.6.6-1.2.6-1.8s-.2-1.2-.6-1.7c-.4-.5-1-.9-1.9-1.2-.6-.2-1.8-.6-3.8-1s-3.3-.9-4.1-1.3c-1-.5-1.8-1.2-2.3-2s-.7-1.7-.7-2.6.3-2.1.9-3,1.5-1.6,2.7-2.1c1.2-.5,2.5-.7,3.9-.7s3,.2,4.2.8c1.2.5,2.1,1.2,2.8,2.2s1,2.1,1,3.3l-2.7.2c-.1-1.3-.6-2.4-1.5-3s-2.1-1-3.7-1-2.9.3-3.7.9-1.2,1.4-1.2,2.2.3,1.4.8,1.9c.5.5,2,1,4.2,1.5s3.8,1,4.7,1.4c1.2.6,2.1,1.3,2.7,2.2.6.9.9,1.9.9,3s-.3,2.2-1,3.2c-.6,1-1.6,1.8-2.8,2.3s-2.6.8-4.1.8-3.5-.3-4.8-.8-2.3-1.4-3-2.5c-.7-1.1-1.1-2.4-1.2-3.8h0Z"/>
        <path class="st4" d="M536.4,192.1v-21.2h4.2l5,15c.5,1.4.8,2.4,1,3.1.2-.8.6-1.9,1.1-3.4l5.1-14.7h3.8v21.2h-2.7v-17.7l-6.2,17.7h-2.5l-6.1-18v18h-2.7Z"/>
      </g>
      <g>
        <path class="st4" d="M488.1,238.8v-2.5h9v7.8c-1.4,1.1-2.8,1.9-4.3,2.5-1.5.6-3,.8-4.5.8s-4-.4-5.7-1.3-3-2.2-3.9-3.9c-.9-1.7-1.3-3.6-1.3-5.6s.4-4,1.3-5.8c.9-1.8,2.1-3.1,3.7-4s3.5-1.3,5.6-1.3,2.9.2,4.1.7c1.2.5,2.2,1.2,2.9,2.1.7.9,1.2,2,1.6,3.5l-2.5.7c-.3-1.1-.7-1.9-1.2-2.5s-1.1-1.1-2-1.5c-.9-.4-1.9-.6-2.9-.6s-2.4.2-3.3.6c-.9.4-1.7.9-2.3,1.5-.6.6-1,1.3-1.3,2.1-.5,1.3-.8,2.7-.8,4.3s.3,3.5,1,4.7,1.6,2.2,2.8,2.8c1.2.6,2.6.9,4,.9s2.4-.2,3.5-.7,2-1,2.6-1.5v-3.9h-6.2,0Z"/>
        <path class="st4" d="M501.5,247.1v-21.2h2.9l11.1,16.6v-16.6h2.7v21.2h-2.9l-11.1-16.6v16.6h-2.7Z"/>
        <path class="st4" d="M522.2,240.3l2.6-.2c.1,1.1.4,1.9.9,2.6s1.2,1.2,2.1,1.6,2,.6,3.2.6,2-.2,2.8-.5c.8-.3,1.4-.8,1.8-1.3.4-.6.6-1.2.6-1.8s-.2-1.2-.6-1.7c-.4-.5-1-.9-1.9-1.2-.6-.2-1.8-.6-3.8-1s-3.3-.9-4.1-1.3c-1-.5-1.8-1.2-2.3-2s-.7-1.7-.7-2.6.3-2.1.9-3,1.5-1.6,2.7-2.1c1.2-.5,2.5-.7,3.9-.7s3,.2,4.2.8c1.2.5,2.1,1.2,2.8,2.2s1,2.1,1,3.3l-2.7.2c-.1-1.3-.6-2.4-1.5-3s-2.1-1-3.7-1-2.9.3-3.7.9-1.2,1.4-1.2,2.2.3,1.4.8,1.9c.5.5,2,1,4.2,1.5,2.3.5,3.8,1,4.7,1.4,1.2.6,2.1,1.3,2.7,2.2.6.9.9,1.9.9,3s-.3,2.2-1,3.2-1.6,1.8-2.8,2.3-2.6.8-4.1.8-3.5-.3-4.8-.8-2.3-1.4-3-2.5-1.1-2.4-1.2-3.8h0Z"/>
        <path class="st4" d="M542.2,240.3l2.6-.2c.1,1.1.4,1.9.9,2.6s1.2,1.2,2.1,1.6,2,.6,3.2.6,2-.2,2.8-.5c.8-.3,1.4-.8,1.8-1.3.4-.6.6-1.2.6-1.8s-.2-1.2-.6-1.7c-.4-.5-1-.9-1.9-1.2-.6-.2-1.8-.6-3.8-1s-3.3-.9-4.1-1.3c-1-.5-1.8-1.2-2.3-2s-.7-1.7-.7-2.6.3-2.1.9-3,1.5-1.6,2.7-2.1c1.2-.5,2.5-.7,3.9-.7s3,.2,4.2.8c1.2.5,2.1,1.2,2.8,2.2s1,2.1,1,3.3l-2.7.2c-.1-1.3-.6-2.4-1.5-3s-2.1-1-3.7-1-2.9.3-3.7.9-1.2,1.4-1.2,2.2.3,1.4.8,1.9c.5.5,2,1,4.2,1.5,2.3.5,3.8,1,4.7,1.4,1.2.6,2.1,1.3,2.7,2.2.6.9.9,1.9.9,3s-.3,2.2-1,3.2-1.6,1.8-2.8,2.3-2.6.8-4.1.8-3.5-.3-4.8-.8-2.3-1.4-3-2.5-1.1-2.4-1.2-3.8h0Z"/>
      </g>
      <path class="st1" d="M6.5,33.6h2.2c2.3,0,4.1,1.8,4.1,4.1v226.8c0,2.3-1.8,4.1-4.1,4.1h0c-4.5,0-8.2-3.7-8.2-8.2V39.6c0-3.3,2.7-6,6-6Z"/>
      <g>
        <path class="st4" d="M101.2,102.2v5.6h5.4v1.4h-5.4v5.7h-1.5v-5.7h-5.4v-1.4h5.4v-5.6h1.5Z"/>
        <path class="st4" d="M111.5,98.8v9.6c0,3.6,1.6,5.1,3.8,5.1s3.9-1.6,3.9-5.1v-9.6h2.1v9.4c0,5-2.6,7-6.1,7s-5.8-1.9-5.8-6.9v-9.5h2.1,0Z"/>
        <path class="st4" d="M131.3,122.5c-.5.2-1.6.5-2.9.5s-2.6-.4-3.5-1.2c-.8-.8-1.3-2-1.3-3.5,0-2.8,1.9-4.8,5.1-4.8s1.9.2,2.4.4l-.3,1c-.5-.2-1.1-.4-2.1-.4-2.3,0-3.8,1.4-3.8,3.8s1.4,3.8,3.6,3.8,1.3-.1,1.6-.2v-2.8h-1.9v-1h3.1v4.5h0Z"/>
      </g>
      <g>
        <path class="st4" d="M215.1,135.5c-.9.4-2.8.9-5,.9s-4.4-.6-6-2.1c-1.4-1.3-2.2-3.5-2.2-6,0-4.8,3.3-8.3,8.7-8.3s3.4.4,4.1.7l-.5,1.7c-.9-.4-1.9-.7-3.6-.7-3.9,0-6.5,2.4-6.5,6.5s2.4,6.5,6.2,6.5,2.3-.2,2.8-.4v-4.8h-3.3v-1.7h5.3v7.8h0Z"/>
        <path class="st4" d="M218.3,136.2v-16.1h2.3l5.1,8.2c1.2,1.9,2.1,3.6,2.9,5.2h0c-.2-2.2-.2-4.1-.2-6.7v-6.8h2v16.1h-2.1l-5.1-8.2c-1.1-1.8-2.2-3.6-3-5.4h0c.1,2.1.1,4,.1,6.7v6.9h-2,0Z"/>
        <path class="st4" d="M234,120.3c1.3-.2,2.8-.4,4.4-.4,3,0,5.1.7,6.5,2,1.5,1.3,2.3,3.2,2.3,5.8s-.8,4.8-2.3,6.3c-1.5,1.5-4,2.3-7.2,2.3s-2.7,0-3.8-.2v-15.8h0ZM236.1,134.6c.5,0,1.3.1,2.1.1,4.5,0,6.9-2.5,6.9-6.8,0-3.8-2.1-6.2-6.5-6.2s-1.9,0-2.4.2v12.8h0Z"/>
      </g>
      <g>
        <path class="st4" d="M97.2,141.8v16.1h-2.1v-16.1h2.1Z"/>
        <path class="st4" d="M100.8,157.9v-16.1h2.3l5.2,8.2c1.2,1.9,2.1,3.6,2.9,5.2h0c-.2-2.2-.2-4.1-.2-6.7v-6.8h2v16.1h-2.1l-5.1-8.2c-1.1-1.8-2.2-3.6-3-5.4h0c.1,2.1.1,4,.1,6.7v6.9h-2,0Z"/>
        <path class="st4" d="M120.4,144.3h0l-2.7,1.5-.4-1.6,3.4-1.8h1.8v15.6h-2v-13.6h0Z"/>
        <path class="st4" d="M134.9,145.2v5.6h5.4v1.4h-5.4v5.7h-1.5v-5.7h-5.4v-1.4h5.4v-5.6h1.5Z"/>
      </g>
      <g>
        <path class="st4" d="M204.9,163.5v16.1h-2.1v-16.1h2.1Z"/>
        <path class="st4" d="M208.5,179.6v-16.1h2.3l5.1,8.2c1.2,1.9,2.1,3.6,2.9,5.2h0c-.2-2.2-.2-4.1-.2-6.7v-6.8h2v16.1h-2.1l-5.1-8.2c-1.1-1.8-2.2-3.6-3-5.4h0c.1,2.1.1,4,.1,6.7v6.9h-2,0Z"/>
        <path class="st4" d="M223.5,179.6v-1.3l1.6-1.6c4-3.8,5.8-5.8,5.8-8.1s-.7-3-3.1-3-2.6.7-3.3,1.3l-.7-1.5c1.1-.9,2.6-1.6,4.4-1.6,3.4,0,4.8,2.3,4.8,4.5s-2.1,5.2-5.4,8.4l-1.2,1.1h0c0,0,7,0,7,0v1.8h-9.9,0Z"/>
        <path class="st4" d="M241.4,172.4v1.5h-5.9v-1.5h5.9Z"/>
      </g>
      <g>
        <path class="st4" d="M97.7,196.1l-1.7,5.1h-2.2l5.5-16.1h2.5l5.5,16.1h-2.2l-1.7-5.1s-5.7,0-5.7,0ZM103,194.5l-1.6-4.6c-.4-1.1-.6-2-.8-2.9h0c-.2.9-.5,1.9-.8,2.9l-1.6,4.7h4.9,0Z"/>
        <path class="st4" d="M111.8,185v16.1h-2.1v-16.1h2.1Z"/>
        <path class="st4" d="M115.5,201.2v-16.1h2.3l5.2,8.2c1.2,1.9,2.1,3.6,2.9,5.2h0c-.2-2.2-.2-4.1-.2-6.7v-6.8h2v16.1h-2.1l-5.1-8.2c-1.1-1.8-2.2-3.6-3-5.4h0c.1,2.1.1,4,.1,6.7v6.9h-2,0Z"/>
        <path class="st4" d="M131,198.8c.6.4,2,.9,3.4.9,2.7,0,3.5-1.7,3.5-3,0-2.2-2-3.1-4-3.1h-1.2v-1.6h1.2c1.5,0,3.5-.8,3.5-2.6s-.8-2.4-2.7-2.4-2.4.6-3.1,1l-.6-1.5c.8-.6,2.4-1.2,4.1-1.2,3.1,0,4.4,1.8,4.4,3.7s-1,3-2.9,3.7h0c1.9.4,3.4,1.8,3.5,4,0,2.5-2,4.7-5.7,4.7s-3.3-.6-4.1-1.1l.6-1.6h0Z"/>
      </g>
      <g>
        <path class="st4" d="M216.6,214.9c0,5.5-3.4,8.5-7.5,8.5s-7.3-3.3-7.3-8.2,3.2-8.5,7.5-8.5,7.3,3.4,7.3,8.2ZM204,215.1c0,3.5,1.9,6.6,5.2,6.6s5.2-3,5.2-6.7-1.7-6.6-5.1-6.6-5.2,3.2-5.2,6.7h0Z"/>
        <path class="st4" d="M223.1,209.5h0l-2.7,1.5-.4-1.6,3.4-1.8h1.8v15.6h-2v-13.6h0Z"/>
      </g>
      <g>
        <path class="st4" d="M202.8,250.1c1.1-.2,2.6-.3,4-.3,2.2,0,3.7.4,4.7,1.3.8.7,1.3,1.8,1.3,3.1,0,2.1-1.3,3.5-3,4.1h0c1.2.5,2,1.6,2.4,3.3.5,2.2.9,3.8,1.2,4.4h-2.2c-.3-.5-.6-1.8-1.1-3.9-.5-2.2-1.4-3.1-3.3-3.1h-2v7h-2.1v-15.9h0ZM204.9,257.4h2.1c2.2,0,3.6-1.2,3.6-3.1s-1.5-3-3.7-3-1.7,0-2.1.2v5.9Z"/>
        <path class="st4" d="M215.4,263.5c.9.6,2.3,1,3.7,1,2.1,0,3.4-1.1,3.4-2.8s-.9-2.4-3-3.2c-2.6-1-4.3-2.3-4.3-4.6s2.1-4.4,5.2-4.4,2.9.4,3.5.8l-.6,1.7c-.5-.3-1.6-.8-3-.8-2.2,0-3,1.3-3,2.4s1,2.2,3.2,3.1c2.7,1.1,4.1,2.4,4.1,4.7s-1.8,4.7-5.6,4.7-3.3-.5-4.1-1.1l.6-1.8h0Z"/>
        <path class="st4" d="M233.2,266v-4.3h-7.2v-1.4l6.9-9.9h2.3v9.7h2.2v1.6h-2.2v4.3h-2ZM233.2,260.1v-5.2c0-.8,0-1.6,0-2.4h0c-.5.9-.9,1.6-1.3,2.3l-3.8,5.3h0s5.1,0,5.1,0h0Z"/>
        <path class="st4" d="M241.9,257.8c-1.8-.8-2.5-2.2-2.5-3.5,0-2.5,2.1-4.1,4.8-4.1s4.6,1.9,4.6,3.8-.7,2.8-2.6,3.6h0c1.9.8,3.1,2.2,3.1,4.1,0,2.7-2.3,4.5-5.3,4.5s-5.2-1.9-5.2-4.2,1.2-3.4,3.1-4.2h0c0,0,0,0,0,0ZM247.2,262c0-1.9-1.3-2.8-3.4-3.4-1.8.5-2.8,1.8-2.8,3.2,0,1.6,1.1,3,3.1,3s3.1-1.2,3.1-2.8h0ZM241.4,254.2c0,1.6,1.2,2.4,3,2.9,1.3-.5,2.4-1.4,2.4-2.8s-.7-2.5-2.6-2.5-2.7,1.1-2.7,2.5h0Z"/>
        <path class="st4" d="M260.6,252.2h-5.9l-.6,4c.4,0,.7,0,1.3,0,1.2,0,2.4.2,3.3.8,1.2.7,2.2,2,2.2,4,0,3-2.4,5.3-5.8,5.3s-3.1-.5-3.9-1l.5-1.6c.6.4,1.9.9,3.4.9s3.7-1.3,3.7-3.4c0-2-1.4-3.4-4.4-3.4s-1.6,0-2.2.1l1-7.5h7.5v1.8h0Z"/>
        <path class="st4" d="M266.9,260.9l-1.7,5.1h-2.2l5.5-16.1h2.5l5.5,16.1h-2.2l-1.7-5.1h-5.7ZM272.2,259.3l-1.6-4.6c-.4-1.1-.6-2-.8-2.9h0c-.2.9-.5,1.9-.8,2.9l-1.6,4.7h4.9,0Z"/>
        <path class="st4" d="M283.4,249.4c-1.8,2.4-3,5.5-3,9.8s1.3,7.3,3,9.7h-1.6c-1.5-2-3.1-5.1-3.1-9.7,0-4.7,1.6-7.8,3.1-9.8h1.6Z"/>
        <path class="st4" d="M291.8,253.3v5.6h5.4v1.4h-5.4v5.7h-1.5v-5.7h-5.4v-1.4h5.4v-5.6h1.5Z"/>
        <path class="st4" d="M298.7,268.9c1.7-2.4,3-5.5,3-9.8s-1.3-7.4-3-9.8h1.6c1.5,2,3.1,5.1,3.1,9.8,0,4.7-1.6,7.8-3.1,9.8h-1.6Z"/>
      </g>
      <g>
        <path class="st4" d="M95.1,228.4c1.1-.2,2.6-.3,4-.3,2.2,0,3.7.4,4.7,1.3.8.7,1.3,1.8,1.3,3.1,0,2.1-1.3,3.5-3,4.1h0c1.2.5,2,1.7,2.3,3.3.5,2.2.9,3.8,1.2,4.4h-2.2c-.3-.5-.6-1.8-1.1-3.9-.5-2.2-1.4-3.1-3.3-3.1h-2v7h-2.1v-15.9h0ZM97.2,235.7h2.1c2.2,0,3.6-1.2,3.6-3.1s-1.5-3-3.7-3-1.7,0-2.1.2v5.9h0Z"/>
        <path class="st4" d="M107.7,241.8c.9.6,2.3,1.1,3.7,1.1,2.1,0,3.4-1.1,3.4-2.8s-.9-2.4-3-3.2c-2.6-.9-4.3-2.3-4.3-4.6s2.1-4.4,5.2-4.4,2.8.4,3.5.8l-.6,1.7c-.5-.3-1.6-.8-3-.8-2.2,0-3,1.3-3,2.4s1,2.2,3.2,3.1c2.7,1.1,4.1,2.4,4.1,4.7s-1.8,4.7-5.6,4.7-3.3-.5-4.1-1.1l.6-1.8h0Z"/>
        <path class="st4" d="M125.6,244.3v-4.3h-7.2v-1.4l6.9-9.9h2.3v9.7h2.2v1.6h-2.2v4.3h-2,0ZM125.6,238.4v-5.2c0-.8,0-1.6,0-2.4h0c-.5.9-.9,1.6-1.3,2.3l-3.8,5.3h0c0,0,5.1,0,5.1,0Z"/>
        <path class="st4" d="M134.2,236.1c-1.8-.8-2.5-2.2-2.5-3.5,0-2.5,2.1-4.1,4.8-4.1s4.6,1.9,4.6,3.8-.7,2.8-2.6,3.6h0c1.9.8,3.1,2.2,3.1,4.1,0,2.7-2.3,4.5-5.3,4.5s-5.2-1.9-5.2-4.2,1.2-3.4,3.1-4.2h0c0,0,0,0,0,0ZM139.5,240.2c0-1.9-1.3-2.8-3.4-3.4-1.8.5-2.8,1.8-2.8,3.2,0,1.6,1.1,2.9,3.1,2.9s3.1-1.2,3.1-2.8ZM133.7,232.4c0,1.6,1.2,2.4,3,2.9,1.3-.4,2.4-1.4,2.4-2.8s-.7-2.5-2.6-2.5-2.7,1.1-2.7,2.5h0Z"/>
        <path class="st4" d="M152.9,230.5h-5.9l-.6,4c.4,0,.7,0,1.3,0,1.2,0,2.4.2,3.4.8,1.2.7,2.2,2,2.2,4,0,3-2.4,5.3-5.8,5.3s-3.1-.5-3.9-1l.5-1.6c.6.4,1.9.9,3.4.9s3.7-1.3,3.7-3.4c0-2-1.4-3.4-4.4-3.4s-1.6,0-2.2.1l1-7.5h7.4v1.8h0Z"/>
        <path class="st4" d="M156.6,228.4c.9-.2,2.4-.4,3.8-.4,2.1,0,3.4.4,4.4,1.2.8.6,1.4,1.6,1.4,2.9s-1.1,2.9-2.7,3.5h0c1.5.4,3.3,1.7,3.3,4.1s-.6,2.5-1.4,3.2c-1.1,1-2.9,1.5-5.6,1.5s-2.5-.1-3.2-.2v-15.9h0ZM158.7,235h1.9c2.2,0,3.5-1.2,3.5-2.7s-1.4-2.6-3.5-2.6-1.5,0-1.8.1v5.2ZM158.7,242.7c.4,0,1,.1,1.8.1,2.2,0,4.1-.8,4.1-3.1s-1.9-3.1-4.2-3.1h-1.7v6.1h0Z"/>
        <path class="st4" d="M174.1,227.7c-1.8,2.4-3,5.5-3,9.8s1.3,7.3,3,9.7h-1.6c-1.5-2-3.1-5.1-3.1-9.7,0-4.7,1.6-7.8,3.1-9.8h1.6Z"/>
        <path class="st4" d="M181.2,237.1v1.5h-5.9v-1.5h5.9Z"/>
        <path class="st4" d="M182.4,247.2c1.7-2.4,3-5.5,3-9.8s-1.3-7.4-3-9.8h1.6c1.5,2,3.1,5.1,3.1,9.8,0,4.7-1.6,7.8-3.1,9.8h-1.6Z"/>
      </g>
      <circle class="st4" cx="70.5" cy="108.4" r="4.8"/>
      <line class="st0" x1="70.5" y1="108.4" x2="89.9" y2="108.4"/>
      <circle class="st4" cx="70.5" cy="130" r="4.9"/>
      <line class="st0" x1="70.5" y1="130" x2="196.5" y2="130"/>
      <circle class="st4" cx="70.5" cy="151.6" r="4.9"/>
      <line class="st0" x1="70.5" y1="151.6" x2="89.9" y2="151.6"/>
      <circle class="st4" cx="70.5" cy="173.2" r="4.9"/>
      <line class="st0" x1="70.5" y1="173.2" x2="196.5" y2="173.2"/>
      <circle class="st4" cx="70.5" cy="216.4" r="4.9"/>
      <line class="st0" x1="70.5" y1="216.4" x2="196.5" y2="216.4"/>
      <circle class="st4" cx="70.5" cy="194.8" r="4.9"/>
      <line class="st0" x1="70.2" y1="194.8" x2="89.5" y2="194.8"/>
      <circle class="st4" cx="70.5" cy="238.1" r="4.9"/>
      <line class="st0" x1="70.5" y1="238.1" x2="89.9" y2="238.1"/>
      <circle class="st4" cx="70.5" cy="259.7" r="4.9"/>
      <line class="st0" x1="70.2" y1="259.7" x2="196.1" y2="259.7"/>
      <g>
        <g>
          <path class="st3" d="M426.2,106.6c0-.1,0-.2,0-.4,0-.6-.2-1.1-.4-1.7,0-.2-.2-.4-.3-.7,0-.2-.2-.3-.3-.5-.2-.4-.5-.8-.9-1.2-.1-.1-.2-.2-.3-.3-.2-.2-.5-.4-.7-.6-.2.1-.4.3-.5.5,0,0-.1.1-.2.2-.1.1-.2.2-.4.4,0,0-.1.2-.2.3-.1.1-.2.2-.3.4,0,0-.1.2-.2.3-.2.3-.3.6-.5.8,0,.1-.1.3-.2.4,0,.1-.1.3-.1.4-.7-.3-1.3-.7-1.8-1.2-.8-.8-1.4-1.9-1.7-3.1,0-.2,0-.5-.1-.7-.5,0-.9.2-1.4.4-.9.4-1.8.9-2.5,1.6-1.4,1.4-2.2,3.2-2.2,5.3s.9,4,2.2,5.3c1.4,1.4,3.2,2.2,5.3,2.2s3.3-.6,4.6-1.6c.3-.2.5-.4.7-.6.1-.1.2-.2.3-.3.4-.5.8-1,1.1-1.6,0,0,0-.1.1-.2,0,0,0,0,0,0,0-.1.1-.3.2-.4,0,0,0,0,0,0,.1-.4.3-.8.3-1.2,0,0,0-.1,0-.2,0-.2,0-.3,0-.5,0,0,0-.1,0-.2,0-.2,0-.4,0-.6s0-.4,0-.6h0ZM417.5,104.2c.1.2.2.3.4.4l.5.5c.2.2.4.3.6.4l1.3.7c.2,0,.4.2.6.2.1,0,.3,0,.4.1.1,0,.2,0,.3,0l1.5.2c.3,0,.5,0,.8,0,.1,0,.2,0,.4,0,0,0,.1,0,.2,0,0,0,.1,0,.2,0,0,.2,0,.4,0,.6,0,1.7-.7,3.2-1.8,4.3-.2.2-.5.5-.8.7-1,.7-2.2,1.1-3.6,1.1s-3.2-.7-4.3-1.8-1.8-2.7-1.8-4.3.7-3.2,1.8-4.3c.5-.5,1.1-.9,1.8-1.2,0,.2.1.3.2.5.3.8.7,1.4,1.3,2.1h0Z"/>
          <path class="st3" d="M433.2,101.9c-.7-.7-1.5-1.2-2.5-1.6-.4-.2-.9-.3-1.4-.4-.5,0-1-.2-1.5-.2-1.7,0-3.3.6-4.6,1.6-.2.1-.4.3-.5.5,0,0-.1.1-.2.2-.1.1-.2.2-.4.4,0,0-.1.2-.2.3-.1.1-.2.2-.3.4,0,0-.1.2-.2.3-.2.3-.3.6-.5.8,0,.1-.1.3-.2.4,0,.1-.1.3-.1.4-.2.4-.3.9-.3,1.4.2,0,.4.2.6.2.1,0,.3,0,.4.1.1,0,.2,0,.3,0l1.5.2c.3,0,.5,0,.8,0,.1,0,.2,0,.4,0,0,0,.1,0,.2,0,0,0,.1,0,.2,0,0,.2,0,.4,0,.6,0,1.7-.7,3.2-1.8,4.3-.2.2-.5.5-.8.7,0,.1.2.2.3.3,0,0,.1.1.2.2.2.2.4.3.5.5,1.3,1,2.9,1.6,4.6,1.6s4-.8,5.3-2.2c1.4-1.4,2.2-3.2,2.2-5.3s-.9-4-2.2-5.3h0ZM432.2,111.6c-1.1,1.1-2.6,1.8-4.3,1.8s-2.5-.4-3.6-1.1c.4-.5.8-1,1.1-1.6,0,0,0-.1.1-.2,0,0,0,0,0,0,0-.1.1-.3.2-.4,0,0,0,0,0,0,.1-.4.3-.8.3-1.2,0,0,0-.1,0-.2,0-.2,0-.3,0-.5,0,0,0-.1,0-.2,0-.2,0-.4,0-.6s0-.4,0-.6c0-.1,0-.2,0-.4,0-.6-.2-1.1-.4-1.7,0-.2-.2-.4-.3-.7,0-.2-.2-.3-.3-.5-.2-.4-.5-.8-.9-1.2,1-.7,2.2-1.1,3.6-1.1s1.8.2,2.6.6c.7.3,1.3.7,1.8,1.2,1.1,1.1,1.8,2.7,1.8,4.3s-.7,3.2-1.8,4.4Z"/>
          <path class="st3" d="M428.6,93.9c-1.4-1.4-3.2-2.2-5.3-2.2s-4,.8-5.3,2.2-2.2,3.2-2.2,5.3,0,.7,0,1c0,.2,0,.5.1.7,0,.2.1.5.2.7,0,.2.1.3.2.5.3.8.7,1.4,1.3,2.1.1.2.2.3.4.4l.5.5c.2.2.4.3.6.4l1.3.7c.2,0,.4.2.6.2.1,0,.3,0,.4.1.1,0,.2,0,.3,0l1.5.2c.3,0,.5,0,.8,0,.1,0,.2,0,.4,0,0,0,.1,0,.2,0,0,0,.1,0,.2,0,.2,0,.5-.1.7-.2.2,0,.5-.2.7-.2,0-.6-.2-1.1-.4-1.7,0-.2-.2-.4-.3-.7,0-.2-.2-.3-.3-.5-.2-.4-.5-.8-.9-1.2,1-.7,2.2-1.1,3.6-1.1s1.8.2,2.6.6c.1-.4.2-.9.3-1.4,0-.3,0-.7,0-1,0-2.1-.8-4-2.2-5.3h0ZM427.9,99.7c-1.7,0-3.3.6-4.6,1.6-.2.1-.4.3-.5.5,0,0-.1.1-.2.2-.1.1-.2.2-.4.4,0,0-.1.2-.2.3-.1.1-.2.2-.3.4,0,0-.1.2-.2.3-.2.3-.3.6-.5.8,0,.1-.1.3-.2.4,0,.1-.1.3-.1.4-.7-.3-1.3-.7-1.8-1.2-.8-.8-1.4-1.9-1.7-3.1,0-.2,0-.5-.1-.7,0-.2,0-.4,0-.6,0-1.7.7-3.2,1.8-4.3,1.1-1.1,2.6-1.8,4.3-1.8s3.2.7,4.4,1.8c1.1,1.1,1.8,2.7,1.8,4.3s0,.4,0,.6c-.5,0-1-.2-1.5-.2h0Z"/>
        </g>
        <path class="st3" d="M425.5,106.5c-.2-2-1.2-3.7-2.8-4.8,0,0-.1.1-.2.2-.1.1-.2.2-.4.4,0,0-.1.2-.2.3-.1.1-.2.2-.3.4,0,0-.1.2-.2.3-.2.3-.3.6-.5.8,0,.1-.1.3-.2.4,0,.1-.1.3-.1.4-.7-.3-1.3-.7-1.8-1.2-.8-.8-1.4-1.9-1.7-3.1-.5,0-.9.2-1.3.4-2.4,1.1-4.1,3.5-4.1,6.3s3.1,6.8,6.8,6.8,2.9-.5,4-1.3c1.7-1.2,2.8-3.2,2.8-5.5s0-.5,0-.7ZM423,111.6c-.2.2-.5.5-.8.7-1,.7-2.2,1.1-3.6,1.1s-3.2-.7-4.3-1.8-1.8-2.7-1.8-4.3.7-3.2,1.8-4.3c.5-.5,1.1-.9,1.8-1.2,0,.2.1.3.2.5.3.8.7,1.4,1.3,2.1.1.2.2.3.4.4l.5.5c.2.2.4.3.6.4l1.3.7c.2,0,.4.2.6.2.1,0,.3,0,.4.1.1,0,.2,0,.3,0l1.5.2c.3,0,.5,0,.8,0,.1,0,.2,0,.4,0,0,0,.1,0,.2,0,0,0,.1,0,.2,0,0,.2,0,.4,0,.6,0,1.7-.7,3.2-1.8,4.3h0Z"/>
        <path class="st3" d="M426,108.7c0,.4-.2.8-.3,1.2.1-.4.3-.8.3-1.2Z"/>
        <path class="st3" d="M424.8,106.6h0c0,0-.1,0-.2,0,0,0,.1,0,.2,0Z"/>
      </g>
      <g>
        <path class="st4" d="M319.8,132.5v-12.4h3.3l2.6,4.6c.7,1.3,1.5,2.9,2,4.3h0c-.2-1.6-.2-3.3-.2-5.2v-3.6h2.6v12.4h-3l-2.7-4.8c-.7-1.3-1.6-2.9-2.2-4.4h0c0,1.7.1,3.4.1,5.4v3.8h-2.6Z"/>
        <path class="st4" d="M335.6,129.3l-.9,3.2h-2.9l3.8-12.4h3.7l3.9,12.4h-3l-1-3.2h-3.6,0ZM338.7,127.2l-.8-2.6c-.2-.7-.4-1.7-.6-2.4h0c-.2.7-.4,1.7-.6,2.4l-.7,2.6h2.8Z"/>
        <path class="st4" d="M347.9,132.5l-4-12.4h3.1l1.5,5.3c.4,1.5.8,2.9,1.1,4.5h0c.3-1.5.7-3,1.1-4.4l1.6-5.3h3l-4.2,12.4h-3.3Z"/>
        <path class="st4" d="M359.2,122.4h-3.4v-2.4h9.6v2.4h-3.4v10.1h-2.8v-10.1h0Z"/>
        <path class="st4" d="M374.5,127.2h-4.6v3h5.1v2.3h-7.9v-12.4h7.7v2.3h-4.9v2.6h4.6v2.3Z"/>
        <path class="st4" d="M377.1,120.1h2.8v10.1h5v2.4h-7.8v-12.4h0Z"/>
        <path class="st4" d="M394,127.2h-4.6v3h5.1v2.3h-7.9v-12.4h7.7v2.3h-4.9v2.6h4.6v2.3Z"/>
        <path class="st4" d="M405.8,132.2c-.5.2-1.7.5-3.2.5-4.3,0-6.5-2.7-6.5-6.2s3-6.6,6.8-6.6,2.6.3,3.1.6l-.6,2.2c-.5-.2-1.4-.5-2.4-.5-2.2,0-4,1.3-4,4.1s1.5,4.1,4,4.1,1.8-.2,2.4-.4l.4,2.2h0Z"/>
        <path class="st4" d="M419.1,126.2c0,4.1-2.5,6.5-6.1,6.5s-5.9-2.8-5.9-6.3,2.4-6.5,6-6.5,5.9,2.9,5.9,6.3h0ZM410.2,126.3c0,2.4,1.1,4.2,3,4.2s3-1.8,3-4.2-1-4.2-3-4.2-3,1.8-3,4.2Z"/>
        <path class="st4" d="M431.7,127.7c0-1.5-.1-3.3-.1-5.1h0c-.4,1.6-.9,3.4-1.4,4.8l-1.5,4.9h-2.2l-1.3-4.8c-.4-1.5-.8-3.2-1.1-4.9h0c0,1.7-.1,3.6-.2,5.2l-.2,4.7h-2.6l.8-12.4h3.8l1.2,4.2c.4,1.4.8,3,1,4.4h0c.3-1.4.8-3.1,1.2-4.5l1.3-4.1h3.7l.7,12.4h-2.7l-.2-4.8h0Z"/>
      </g>
    </g>
  </g>
</svg>